<svg xmlns="http://www.w3.org/2000/svg" width="85" height="60" viewBox="0 0 85 60" fill="none">
<path fill-rule="evenodd" clip-rule="evenodd" d="M15.2409 25.7799L72.3031 33.0454C79.6858 33.9854 84.957 40.7949 84.017 48.1776C83.077 55.5603 76.2675 60.8316 68.8848 59.8915L11.8226 52.6261C4.43993 51.6861 -0.83127 44.8766 0.108722 37.4938C1.04871 30.1111 7.85816 24.8399 15.2409 25.7799Z" fill="#4EAE32"/>
<path d="M20.1134 46.3188C19.5975 46.2531 19.0919 46.1336 18.5966 45.9602C18.1014 45.7867 17.6456 45.5459 17.2297 45.2377C16.8135 44.9295 16.4838 44.5391 16.2405 44.0667C15.9971 43.5942 15.8694 43.0261 15.8574 42.3624L18.3622 42.6812C18.4328 42.9938 18.5751 43.2567 18.7895 43.4703C19.0037 43.6839 19.2647 43.855 19.5726 43.9839C19.8804 44.1128 20.1904 44.1971 20.5026 44.2368C20.6928 44.261 20.9015 44.2738 21.129 44.2752C21.3564 44.2766 21.5737 44.2491 21.781 44.1927C21.9882 44.1363 22.1628 44.0378 22.3049 43.8972C22.4469 43.7567 22.5345 43.5574 22.5673 43.2994C22.5984 43.0551 22.5552 42.8529 22.4376 42.6932C22.3199 42.5333 22.1513 42.3946 21.9318 42.2769C21.7122 42.1592 21.443 42.0526 21.124 41.9567C20.5558 41.7602 19.9481 41.5483 19.301 41.3211C18.654 41.0939 18.106 40.7929 17.6569 40.4186C17.4688 40.2704 17.3105 40.1053 17.182 39.9235C17.0533 39.7415 16.9507 39.5455 16.874 39.3358C16.7971 39.126 16.7498 38.9026 16.7315 38.6658C16.7134 38.4289 16.7217 38.1747 16.7562 37.9033C16.8289 37.333 17.0095 36.8627 17.298 36.4925C17.5866 36.1222 17.9471 35.8371 18.3796 35.6369C18.8121 35.4367 19.2941 35.3084 19.8255 35.2519C20.3569 35.1954 20.8941 35.2017 21.4373 35.2708C22.1705 35.3642 22.821 35.5643 23.3889 35.8711C23.9569 36.178 24.411 36.5945 24.7509 37.1206C25.0909 37.6469 25.255 38.2817 25.2431 39.0253L22.8807 38.7245C22.8562 38.3763 22.6837 38.0785 22.3634 37.8307C22.0431 37.583 21.6182 37.4255 21.0887 37.358C20.8987 37.3338 20.6997 37.3257 20.4917 37.3337C20.2837 37.3418 20.0834 37.3714 19.8906 37.4228C19.6977 37.4741 19.5342 37.5671 19.3998 37.7018C19.2653 37.8364 19.1843 38.0123 19.1566 38.2296C19.1307 38.4332 19.1591 38.6162 19.242 38.7785C19.3248 38.9407 19.4649 39.0862 19.6624 39.2149C19.8599 39.3434 20.0969 39.4599 20.3733 39.5641C20.8228 39.7179 21.2927 39.8742 21.7829 40.0332C22.2732 40.1923 22.6954 40.3427 23.0499 40.4843C23.4688 40.6618 23.8404 40.885 24.165 41.154C24.4894 41.423 24.7272 41.7499 24.8782 42.1347C25.0293 42.5195 25.0693 42.9903 24.9985 43.5469C24.9154 44.1985 24.7139 44.7248 24.3939 45.1255C24.0739 45.5262 23.681 45.8212 23.2155 46.0102C22.7499 46.1993 22.2455 46.3144 21.7022 46.3557C21.1589 46.3967 20.6293 46.3845 20.1134 46.3188ZM30.6469 47.5151C29.7779 47.4045 29.0765 47.1979 28.5425 46.8954C28.0084 46.5928 27.635 46.1659 27.4225 45.6146C27.2097 45.0633 27.1588 44.3531 27.2695 43.4843L27.9047 38.4949L26.2552 38.2849L26.5352 36.0855L28.1848 36.2956L28.5659 33.302L31.0504 33.6182L30.6692 36.6119L33.1741 36.9308L32.894 39.1302L30.3892 38.8112L29.7954 43.4748C29.7262 44.0178 29.7686 44.444 29.9224 44.7534C30.0761 45.0626 30.4856 45.2597 31.1508 45.3443L32.0062 45.4532L31.7262 47.6526L30.6469 47.5151ZM37.9263 48.5868C36.3788 48.3898 35.2451 47.8385 34.5258 46.9329C33.8064 46.0274 33.5513 44.7532 33.7605 43.1104L34.5254 37.1028L37.0098 37.4192L36.2657 43.2638C36.193 43.834 36.208 44.3395 36.3105 44.7803C36.4131 45.221 36.6232 45.5754 36.9409 45.8436C37.2585 46.1116 37.6822 46.2794 38.2116 46.3467C38.7818 46.4194 39.2484 46.3581 39.6113 46.1629C39.9741 45.9675 40.2503 45.6682 40.4395 45.2646C40.6289 44.861 40.7582 44.3877 40.8273 43.8447L41.5715 38.0001L44.056 38.3164L43.291 44.3239C43.0767 46.0074 42.5023 47.1863 41.5679 47.8607C40.6336 48.5349 39.4198 48.777 37.9263 48.5868ZM49.1545 50.0164C48.0685 49.8782 47.204 49.5164 46.5611 48.931C45.9181 48.3455 45.4763 47.6166 45.2355 46.7445C44.9948 45.8723 44.9393 44.927 45.0689 43.9088C45.2038 42.8498 45.5076 41.9262 45.9805 41.1379C46.4534 40.3496 47.0871 39.7612 47.8815 39.3725C48.6761 38.9839 49.6231 38.8596 50.7228 38.9997C51.1301 39.0515 51.5216 39.1462 51.8973 39.2837C52.273 39.4212 52.6223 39.6038 52.9451 39.831C53.268 40.0583 53.5258 40.3361 53.7187 40.6641L54.3254 35.8989L56.8098 36.2152L54.9766 50.613L52.5736 50.307L52.7039 48.9577C52.4028 49.2643 52.0653 49.5042 51.6914 49.6773C51.3176 49.8505 50.9133 49.9645 50.4786 50.0197C50.0439 50.0746 49.6025 50.0736 49.1545 50.0164ZM49.9082 47.8361C50.5598 47.919 51.1155 47.8346 51.5752 47.5827C52.0351 47.3308 52.4025 46.9637 52.6778 46.4814C52.9531 45.9991 53.127 45.4728 53.1996 44.9027C53.2756 44.3053 53.2396 43.7488 53.0913 43.2332C52.9431 42.7177 52.6777 42.2838 52.2948 41.9315C51.912 41.5793 51.3947 41.3616 50.7431 41.2786C50.0507 41.1905 49.4843 41.277 49.0441 41.5383C48.6038 41.7996 48.2596 42.1731 48.0116 42.6589C47.7635 43.1447 47.6021 43.6795 47.5279 44.2633C47.4725 44.6977 47.4712 45.1149 47.5237 45.5148C47.5762 45.9146 47.6921 46.2777 47.8713 46.604C48.0506 46.9303 48.3058 47.2009 48.6372 47.4155C48.9686 47.6302 49.3922 47.7703 49.9082 47.8361ZM61.2421 56.3982C60.414 56.2928 59.6239 56.0783 58.8717 55.7549C58.1196 55.4314 57.4446 54.9627 56.8468 54.3486L57.997 52.4669C58.4119 52.8922 58.891 53.2464 59.4345 53.5294C59.9778 53.8125 60.589 53.9972 61.2678 54.0836C62.3404 54.2202 63.1589 54.0485 63.7237 53.5685C64.2884 53.0885 64.6303 52.3802 64.7496 51.4434L64.8507 50.6491C64.5666 50.9303 64.2351 51.1503 63.8561 51.309C63.4772 51.4677 63.078 51.5685 62.6587 51.6117C62.2393 51.655 61.8192 51.6498 61.3983 51.5962C60.3529 51.463 59.5486 51.1434 58.9853 50.6371C58.422 50.1307 58.0526 49.4836 57.877 48.6956C57.7013 47.9075 57.675 47.0314 57.7977 46.0674L58.5496 40.1617L61.0138 40.4755L60.3318 45.8314C60.2835 46.2115 60.2613 46.6018 60.2655 47.0026C60.2697 47.4032 60.3324 47.7769 60.4538 48.1233C60.5753 48.47 60.783 48.7619 61.077 48.9995C61.371 49.237 61.7827 49.3894 62.3122 49.4568C63.0045 49.545 63.5624 49.4435 63.9858 49.1526C64.4092 48.8615 64.7267 48.4535 64.9384 47.9288C65.1501 47.4038 65.2948 46.8359 65.3726 46.2249L66.0235 41.1134L68.508 41.4297L67.2711 51.1437C67.1553 52.0533 66.9561 52.8591 66.6736 53.5613C66.3909 54.2633 66.0064 54.8456 65.5199 55.3079C65.0333 55.7704 64.4397 56.0982 63.739 56.2919C63.0384 56.4855 62.206 56.5209 61.2421 56.3982Z" fill="white"/>
<path fill-rule="evenodd" clip-rule="evenodd" d="M44.8204 0H44.8207C54.6357 0 62.6663 8.03044 62.6663 17.8457V17.9788C62.6663 27.7941 54.6357 35.8245 44.8207 35.8245H44.8204C35.0052 35.8245 26.9747 27.7941 26.9747 17.9788V17.8457C26.9747 8.03044 35.0052 0 44.8204 0Z" fill="#264796"/>
<path d="M44.8544 28.0755C42.2545 28.0755 40.2646 27.4028 38.8848 26.0572C37.505 24.7115 36.8151 22.6589 36.8151 19.8994V11.749C36.8151 10.6796 37.6873 9.80737 38.7567 9.80737H39.047C40.1164 9.80737 40.9887 10.6796 40.9887 11.749V19.6256C40.9887 20.5836 41.1199 21.4161 41.3821 22.123C41.6443 22.83 42.0663 23.3717 42.6479 23.748C43.2295 24.1243 43.9649 24.3124 44.8544 24.3124C45.8124 24.3124 46.5707 24.113 47.1294 23.7138C47.6882 23.3147 48.0816 22.7616 48.3096 22.0546C48.5377 21.3476 48.6518 20.5379 48.6518 19.6256V11.749C48.6518 10.6796 49.524 9.80737 50.5934 9.80737H50.8837C51.9531 9.80737 52.8253 10.6796 52.8253 11.749V19.8994C52.8253 22.7273 52.1241 24.7971 50.7215 26.1084C49.3188 27.4198 47.3631 28.0755 44.8544 28.0755Z" fill="white"/>
</svg>